<svg width="120" height="20" viewBox="0 0 120 20" fill="none" xmlns="http://www.w3.org/2000/svg">
<g clip-path="url(#clip0_173_1084)">
<g clip-path="url(#clip1_173_1084)">
<path d="M0.592285 19.1057V1.86417H4.5348V15.411H11.5572V19.1057H0.592285Z" fill="#00652E"/>
<mask id="mask0_173_1084" style="mask-type:luminance" maskUnits="userSpaceOnUse" x="-33" y="-81" width="180" height="187">
<path d="M-33 -80.5H147V105.5H-33V-80.5Z" fill="white"/>
</mask>
<g mask="url(#mask0_173_1084)">
<path d="M12.7395 8.02173H16.4357V19.1057H12.7395V8.02173ZM12.4194 4.20414C12.4194 3.56373 12.6369 3.05481 13.0722 2.67683C13.5074 2.29939 14.037 2.1104 14.6615 2.1104C15.22 2.1104 15.7086 2.30371 16.1275 2.68925C16.5467 3.07533 16.756 3.5802 16.756 4.20414C16.756 4.89368 16.5467 5.43986 16.1275 5.84187C15.7086 6.24469 15.22 6.44556 14.6615 6.44556C14.0208 6.44556 13.4871 6.24847 13.0601 5.85429C12.6325 5.46011 12.4194 4.91015 12.4194 4.20414Z" fill="black"/>
<path d="M19.4663 19.1056V8.02161H23.1625V8.88394C23.9017 8.17793 24.8133 7.82479 25.8977 7.82479C28.9036 7.82479 30.4069 9.38503 30.4069 12.5044V19.1056H26.7107V13.1449C26.7107 12.5212 26.5462 12.053 26.2178 11.7409C25.8891 11.4291 25.4456 11.273 24.8873 11.273C24.2466 11.273 23.6714 11.5279 23.1625 12.0366V19.1056H19.4663Z" fill="black"/>
<path d="M38.1437 10.8051C37.0428 10.8051 36.3117 11.3142 35.9506 12.3321H39.9423C39.9423 11.922 39.7821 11.5648 39.462 11.2608C39.1414 10.9571 38.7017 10.8051 38.1437 10.8051ZM41.5688 15.5341L42.5789 18.1452C41.4615 18.9826 40.0244 19.4011 38.2669 19.4011C36.4435 19.4011 34.9856 18.8679 33.8933 17.8004C32.8005 16.7331 32.2544 15.3211 32.2544 13.5638C32.2544 11.9055 32.8089 10.5181 33.9179 9.40113C35.0266 8.28474 36.4762 7.72614 38.2669 7.72614C39.7454 7.72614 41.0099 8.21509 42.0614 9.19162C43.1123 10.169 43.6385 11.4209 43.6385 12.9479C43.6385 13.6869 43.5645 14.3027 43.4164 14.7952H36.0738C36.4022 15.8136 37.2646 16.3225 38.661 16.3225C39.7613 16.3225 40.7309 16.0598 41.5688 15.5341Z" fill="black"/>
<path d="M58.2747 14.4504L59.7775 17.4062C59.2516 17.9972 58.4716 18.4778 57.4369 18.8471C56.4019 19.2165 55.3094 19.4011 54.1599 19.4011C51.4822 19.4011 49.3055 18.5847 47.6299 16.9505C45.9545 15.3168 45.1167 13.1615 45.1167 10.4849C45.1167 7.89056 45.9051 5.75579 47.4822 4.0808C49.0592 2.40608 51.2769 1.56858 54.135 1.56858C55.2354 1.56858 56.2542 1.73705 57.1903 2.07346C58.1267 2.41013 58.866 2.8413 59.408 3.36669L57.6586 6.32249C56.4919 5.61648 55.3178 5.26307 54.135 5.26307C52.7387 5.26307 51.5846 5.72312 50.673 6.64242C49.7612 7.56226 49.3055 8.84307 49.3055 10.4849C49.3055 12.0119 49.7898 13.2644 50.7594 14.2412C51.7285 15.2182 52.985 15.7066 54.5294 15.7066C55.9093 15.7066 57.1574 15.2879 58.2747 14.4504Z" fill="#C21327"/>
<path d="M65.7653 16.1746C66.4221 16.1746 66.8902 15.9862 67.1695 15.6082V14.9184C66.8248 14.6722 66.3565 14.549 65.7653 14.549C65.453 14.549 65.1983 14.6227 65.0014 14.7707C64.804 14.9184 64.7057 15.1238 64.7057 15.3865C64.7057 15.6328 64.804 15.8258 65.0014 15.9654C65.1983 16.105 65.453 16.1746 65.7653 16.1746ZM62.8083 11.495L61.8967 8.80996C62.3726 8.51433 62.993 8.26027 63.7569 8.04644C64.5209 7.83316 65.2723 7.72624 66.0116 7.72624C67.654 7.72624 68.8327 8.12042 69.5473 8.90851C70.262 9.6966 70.6193 10.8708 70.6193 12.4307V19.1056H67.4161V18.0958C66.8737 18.868 65.9046 19.2535 64.5085 19.2535C63.4738 19.2535 62.6314 18.9458 61.9829 18.3296C61.3339 17.7141 61.0098 16.8561 61.0098 15.7559C61.0098 14.5574 61.3828 13.6462 62.1306 13.022C62.878 12.3981 63.8349 12.086 65.0014 12.086C65.9211 12.086 66.6439 12.2914 67.1695 12.7018C67.2351 11.4375 66.7262 10.8052 65.6418 10.8052C64.9188 10.8052 63.9746 11.0352 62.8083 11.495Z" fill="black"/>
<path d="M90.2826 11.8642V19.1057H86.5864V12.8493C86.5864 11.7988 86.1265 11.2732 85.2065 11.2732C84.8287 11.2732 84.4878 11.3636 84.1842 11.544C83.8798 11.7248 83.6624 11.9546 83.5312 12.2338V19.1057H79.835V12.8248C79.835 11.7905 79.3996 11.2732 78.5291 11.2732C77.7734 11.2732 77.19 11.5685 76.7797 12.1598V19.1057H73.0835V8.02173H76.7797V9.05631C77.6008 8.23556 78.6933 7.82491 80.057 7.82491C80.8616 7.82491 81.5352 7.97691 82.0773 8.28037C82.6193 8.58465 82.9969 8.97424 83.2108 9.45049C84.0981 8.3665 85.2886 7.82491 86.7836 7.82491C89.1161 7.82491 90.2826 9.17133 90.2826 11.8642Z" fill="black"/>
<path d="M92.377 16.7411C92.377 16.1501 92.6068 15.6166 93.067 15.14C93.5265 14.6641 94.1344 14.4259 94.8904 14.4259C95.547 14.4259 96.0975 14.6641 96.5412 15.14C96.9847 15.6166 97.2065 16.1501 97.2065 16.7411C97.2065 17.4147 96.9885 18.0013 96.5534 18.5022C96.118 19.0033 95.5638 19.2535 94.8904 19.2535C94.1344 19.2535 93.5265 19.007 93.067 18.5146C92.6068 18.0221 92.377 17.4306 92.377 16.7411Z" fill="black"/>
<path d="M99.5469 19.1056V8.02161H103.243V8.90851C103.736 8.18603 104.5 7.82479 105.535 7.82479C106.306 7.82479 106.881 7.96437 107.259 8.24354L105.953 11.6918C105.477 11.4126 105.025 11.273 104.598 11.273C103.99 11.273 103.539 11.5357 103.243 12.0611V19.1056H99.5469Z" fill="black"/>
<path d="M118.963 8.02178V19.1058H115.267V17.9972C114.528 18.9332 113.468 19.4011 112.088 19.4011C111.07 19.4011 110.195 19.0237 109.464 18.2683C108.733 17.5131 108.368 16.421 108.368 14.9923V8.02178H112.064V14.2042C112.064 14.6969 112.179 15.1116 112.409 15.448C112.639 15.7847 113 15.9529 113.493 15.9529C114.134 15.9529 114.725 15.6165 115.267 14.9431V8.02178H118.963Z" fill="black"/>
</g>
</g>
</g>
<defs>
<clipPath id="clip0_173_1084">
<rect width="120" height="19" fill="white" transform="translate(0 0.5)"/>
</clipPath>
<clipPath id="clip1_173_1084">
<rect width="120" height="19.5" fill="white" transform="translate(0 0.5)"/>
</clipPath>
</defs>
</svg>
